<svg version="1.1" xmlns="http://www.w3.org/2000/svg" xmlns:xlink="http://www.w3.org/1999/xlink" width="48" height="48"><defs><linearGradient x1="13.62138" y1="12.86998" x2="72.70524" y2="74.30746" gradientUnits="userSpaceOnUse" id="color-1"><stop offset="0.2" stop-color="#000000" stop-opacity="0.31"></stop><stop offset="1" stop-color="#000000" stop-opacity="0"></stop></linearGradient><filter id="dropshadow-base"><feColorMatrix type="matrix" values="0 0 0 0 0  0 0 0 0 0  0 0 0 0 0  0 0 0 .8 0"></feColorMatrix> <feOffset dx="0" dy="1"></feOffset> <feGaussianBlur stdDeviation="1"></feGaussianBlur> <feComposite in="SourceGraphic"></feComposite></filter><filter id="dropshadow-banner" x="-10%" y="-10%" width="120%" height="130%"><feColorMatrix type="matrix" values="0 0 0 0 0  0 0 0 0 0  0 0 0 0 0  0 0 0 .4 0"></feColorMatrix> <feOffset dx="0" dy="1"></feOffset> <feGaussianBlur stdDeviation="0.5"></feGaussianBlur> <feComposite in="SourceGraphic"></feComposite></filter></defs><g fill="none" fill-rule="nonzero" stroke="none" stroke-width="none" stroke-linecap="butt" stroke-linejoin="miter" stroke-miterlimit="10" stroke-dasharray="" stroke-dashoffset="0" font-family="none" font-weight="none" font-size="none" text-anchor="none" style="mix-blend-mode: normal"><path d="M2,24c0,-12.15026 9.84974,-22 22,-22c12.15026,0 22,9.84974 22,22c0,12.15026 -9.84974,22 -22,22c-12.15026,0 -22,-9.84974 -22,-22z" id="base 1 6" fill="#303f9f" stroke-width="1"></path><path d="M34.80402,12.86998l11.19588,11.19588c-0.03276,11.18103 -8.4064,20.39968 -19.2259,21.76093l-10.10919,-10.10919c-0.3645,-0.3645 -0.60973,-0.84829 -0.67215,-1.38843l-2.37128,-21.45919z" fill="url(#color-1)" stroke-width="1"></path><path d="M13.62138,12.86998l2.37128,21.45919c0.13533,1.17093 1.12974,2.07708 2.33597,2.07708h11.76813c1.20623,0 2.20064,-0.90615 2.33597,-2.07708l2.37128,-21.45919zM24.2127,32.8758c-1.94763,0 -3.53044,-1.58281 -3.53044,-3.53044c0,-2.35363 3.53044,-6.35479 3.53044,-6.35479c0,0 3.53044,4.00117 3.53044,6.35479c0,1.94763 -1.58281,3.53044 -3.53044,3.53044zM31.65605,19.93086h-14.88669l-0.5178,-4.70725h15.92817z" fill="none" stroke-width="0"></path><path d="M34.80402,12.86998l-2.37128,21.45919c-0.13533,1.17093 -1.12974,2.07708 -2.33597,2.07708h-11.76813c-1.20623,0 -2.20064,-0.90615 -2.33597,-2.07708l-2.37128,-21.45919zM27.74314,29.34536c0,-2.35363 -3.53044,-6.35479 -3.53044,-6.35479c0,0 -3.53044,4.00117 -3.53044,6.35479c0,1.94763 1.58281,3.53044 3.53044,3.53044c1.94763,0 3.53044,-1.58281 3.53044,-3.53044zM32.17973,15.2236h-15.92817l0.5178,4.70725h14.88669z" fill="#ffffff" stroke-width="0"></path><path d="M2,24c0,-12.15026 9.84974,-22 22,-22c12.15026,0 22,9.84974 22,22c0,12.15026 -9.84974,22 -22,22c-12.15026,0 -22,-9.84974 -22,-22z" id="base 1 1 1" fill="none" stroke-width="1"></path><g fill="#000000" stroke-width="1" font-family="Roboto, sans-serif" font-weight="normal" font-size="14" text-anchor="start"></g><rect x="2" y="2" width="44" height="22" fill="none" stroke-width="1"></rect><path d="M2,24v-22h44v22z" fill="none" stroke-width="1"></path><path d="M2,24v-22h44v22z" fill="none" stroke-width="1"></path><path d="M2,24v-22h44v22z" fill="none" stroke-width="1"></path><path d="M2,24v-22h44v22z" fill="none" stroke-width="1"></path></g></svg>